<svg xmlns="http://www.w3.org/2000/svg" viewBox="0 0 24 30" fill="none" x="0px" y="0px"><path d="M16 2.9997L20 6.9997L20.5858 6.41391C20.8949 6.1046 21.0821 5.71872 21.1463 5.31757C21.2443 4.70573 21.0574 4.05713 20.5858 3.58548L19.4142 2.41391C18.9426 1.94227 18.294 1.75543 17.6821 1.8534C17.2809 1.91764 16.8955 2.10434 16.5862 2.41349L16 2.9997Z" fill="black"/><path fill-rule="evenodd" clip-rule="evenodd" d="M5 13.9997L15 3.9997L19 7.9997L9 17.9997L3.00017 19.9998H21V21.9998H3L3.00017 19.9998L5 13.9997ZM7.58579 16.5855L16.1716 7.9997L15 6.82812L6.41421 15.4139L7.58579 16.5855Z" fill="black"/><text x="0" y="39" fill="#000000" font-size="5px" font-weight="bold" font-family="'Helvetica Neue', Helvetica, Arial-Unicode, Arial, Sans-serif">Created by Dániel Z. Aczél</text><text x="0" y="44" fill="#000000" font-size="5px" font-weight="bold" font-family="'Helvetica Neue', Helvetica, Arial-Unicode, Arial, Sans-serif">from the Noun Project</text></svg>