<svg xmlns="http://www.w3.org/2000/svg" viewBox="0 0 24 30" x="0px" y="0px"><path d="M10.25,5A.75.75,0,0,1,11,4.25H21a.75.75,0,0,1,0,1.5H11A.75.75,0,0,1,10.25,5ZM11,12.75H21a.75.75,0,0,0,0-1.5H11a.75.75,0,0,0,0,1.5Zm0,7H21a.75.75,0,0,0,0-1.5H11a.75.75,0,0,0,0,1.5ZM3.5,8.25a.75.75,0,0,0,0,1.5h3a.75.75,0,0,0,0-1.5H5.75V3A.75.75,0,0,0,5,2.25H3.5a.75.75,0,0,0,0,1.5h.75v4.5ZM5.75,18l-3.2,2.4A.75.75,0,0,0,3,21.75H7a.75.75,0,0,0,0-1.5H5.25l1.4-1.05A2.75,2.75,0,1,0,2.25,17a.75.75,0,0,0,1.5,0,1.25,1.25,0,1,1,2,1Z"/><text x="0" y="39" fill="#000000" font-size="5px" font-weight="bold" font-family="'Helvetica Neue', Helvetica, Arial-Unicode, Arial, Sans-serif">Created by Royyan Wijaya</text><text x="0" y="44" fill="#000000" font-size="5px" font-weight="bold" font-family="'Helvetica Neue', Helvetica, Arial-Unicode, Arial, Sans-serif">from the Noun Project</text></svg>