<svg xmlns="http://www.w3.org/2000/svg" xmlns:xlink="http://www.w3.org/1999/xlink" version="1.1" viewBox="328 722 64 80" x="0px" y="0px"><g><g style="" fill="rgb(0,0,0)" fill-opacity="1.0" stroke-linejoin=" miter"><path d="M371.29938,739.81384C371.29938,739.81384,371.29877,739.81384,371.29877,739.81384C368.1217,739.81384,365.54663,742.38995,365.54663,745.5676C365.54663,748.7465,368.12357,751.32336,371.30237,751.32336C374.48108,751.32336,377.0581,748.7465,377.0581,745.5676C377.0581,742.38873,374.48083,739.81384,371.30203,739.81384 Z M356.3162,746.44275C356.3162,746.44275,356.31525,746.44275,356.31525,746.44275C354.76932,746.44275,353.4075,747.2301,352.6083,748.4279L343.74188,761.1731L343.73843,761.1785C343.235,761.89874,342.9397,762.77576,342.9397,763.72375C342.9397,766.15247,344.88297,768.12756,347.29932,768.1792L372.4876,768.18115C374.9403,768.17017,376.92563,766.17883,376.92563,763.7239C376.92563,762.7945,376.64185,761.93353,376.15625,761.22L371.52353,754.5808C370.71616,753.43024,369.3837,752.68854,367.87668,752.68854C367.86008,752.6886,367.85907,752.6886,367.85907,752.6886C366.38385,752.6886,365.07767,753.41016,364.2701,754.5207L364.2701,754.52167L359.965,748.33984C359.15762,747.1893,357.824,746.44275,356.317,746.44275 Z M378.3888,737.397C378.3888,737.397,378.3894,737.397,378.3894,737.397C379.5026,737.397,380.40598,738.2916,380.42392,739.40063L380.42422,768.5906C380.40628,769.702,379.499,770.59814,378.38242,770.59814C378.36627,770.59814,341.61542,770.5981,341.61542,770.5981C340.49884,770.5981,339.59155,769.70197,339.5736,768.5905L339.5739,739.40076C339.59177,738.2941,340.46634,737.40344,341.57623,737.39575 Z M341.5991,735.008L341.5991,735.009C339.16852,735.014,337.19925,736.9802,337.18552,739.40967L337.18567,768.6241C337.22208,771.0394,339.1914,772.98627,341.61542,772.98724L378.38242,772.9883C380.80643,772.9863,382.77576,771.0395,382.81216,768.62415L382.81232,739.40955C382.79858,736.9815,380.84073,735.01605,378.4121,735.0049 Z"/></g></g><text x="328" y="801" fill="#000000" font-size="5px" font-weight="bold" font-family="'Helvetica Neue', Helvetica, Arial-Unicode, Arial, Sans-serif">Created by My Project</text><text x="328" y="806" fill="#000000" font-size="5px" font-weight="bold" font-family="'Helvetica Neue', Helvetica, Arial-Unicode, Arial, Sans-serif">from the Noun Project</text></svg>