<svg xmlns:dc="http://purl.org/dc/elements/1.1/" xmlns:cc="http://creativecommons.org/ns#" xmlns:rdf="http://www.w3.org/1999/02/22-rdf-syntax-ns#" xmlns:svg="http://www.w3.org/2000/svg" xmlns="http://www.w3.org/2000/svg" xmlns:sodipodi="http://sodipodi.sourceforge.net/DTD/sodipodi-0.dtd" xmlns:inkscape="http://www.inkscape.org/namespaces/inkscape" version="1.1" x="0px" y="0px" viewBox="0 0 100 125"><g transform="translate(0,-952.36218)"><path style="color:#000000;enable-background:accumulate;" d="m 28,974.36218 c -5.54001,0 -10,4.45999 -10,10 l 0,46.00002 16,-14 38,0 c 5.54001,0 10,-4.46 10,-10 l 0,-22.00002 c 0,-5.54001 -4.45999,-10 -10,-10 l -44,0 z m 4,9 36,0 c 1.10457,0 2,0.8954 2,2 0,1.1046 -0.89543,2 -2,2 l -36,0 c -1.10457,0 -2,-0.8954 -2,-2 0,-1.1046 0.89543,-2 2,-2 z m 0,10 36,0 c 1.10457,0 2,0.8954 2,2 0,1.1046 -0.89543,2 -2,2 l -36,0 c -1.10457,0 -2,-0.8954 -2,-2 0,-1.1046 0.89543,-2 2,-2 z m 0,10.00002 28,0 c 1.10457,0 2,0.8954 2,2 0,1.1046 -0.89543,2 -2,2 l -28,0 c -1.10457,0 -2,-0.8954 -2,-2 0,-1.1046 0.89543,-2 2,-2 z" fill="#000000" stroke="none" marker="none" visibility="visible" display="inline" overflow="visible"/></g><text x="0" y="115" fill="#000000" font-size="5px" font-weight="bold" font-family="'Helvetica Neue', Helvetica, Arial-Unicode, Arial, Sans-serif">Created by arjuazka</text><text x="0" y="120" fill="#000000" font-size="5px" font-weight="bold" font-family="'Helvetica Neue', Helvetica, Arial-Unicode, Arial, Sans-serif">from the Noun Project</text></svg>