<svg xmlns="http://www.w3.org/2000/svg" viewBox="0 0 24 30" x="0px" y="0px"><path d="M2,4A2,2,0,1,1,4,6,2,2,0,0,1,2,4ZM4,14a2,2,0,1,0-2-2A2,2,0,0,0,4,14Zm0,8a2,2,0,1,0-2-2A2,2,0,0,0,4,22ZM21,3H10a1,1,0,0,0,0,2H21a1,1,0,0,0,0-2Zm0,8H10a1,1,0,0,0,0,2H21a1,1,0,0,0,0-2Zm0,8H10a1,1,0,0,0,0,2H21a1,1,0,0,0,0-2Z"/><text x="0" y="39" fill="#000000" font-size="5px" font-weight="bold" font-family="'Helvetica Neue', Helvetica, Arial-Unicode, Arial, Sans-serif">Created by Royyan Wijaya</text><text x="0" y="44" fill="#000000" font-size="5px" font-weight="bold" font-family="'Helvetica Neue', Helvetica, Arial-Unicode, Arial, Sans-serif">from the Noun Project</text></svg>