<svg xmlns="http://www.w3.org/2000/svg" xmlns:xlink="http://www.w3.org/1999/xlink" version="1.1" x="0px" y="0px" viewBox="0 0 100 125" enable-background="new 0 0 100 100" xml:space="preserve"><path d="M88.746,62.38c-1.48-1.48-2.943-2.961-4.423-1.48L51.809,93.414c-1.48,1.463,0,2.943,1.48,4.423  c1.48,1.48,2.961,2.961,4.441,1.48l32.496-32.514C91.707,65.341,90.227,63.86,88.746,62.38z M53.359,62.45  c-1.48,1.48-2.961,2.943-1.48,4.423l32.514,32.514c1.463,1.48,2.943,0,4.423-1.48c1.48-1.48,2.961-2.961,1.48-4.441L57.783,60.97  C56.32,59.489,54.84,60.97,53.359,62.45z M70.879,0H16.962c-2.995,0-2.995,0-3.413,2.995l-1.268,8.986  c-0.418,2.995-0.418,2.995,2.577,2.995h19.769l-7.579,53.917c-0.418,2.995-0.418,2.995,2.577,2.995h8.986  c2.995,0,2.995,0,3.413-2.995l7.579-53.917h19.17c2.995,0,2.995,0,3.413-2.995l1.268-8.986C73.874,0,73.874,0,70.879,0z   M49.981,77.322H12.574c-3.483,0-3.483,0-3.483,3.483c0,2.786,0,2.786,3.483,2.786h37.407c3.483,0,3.483,0,3.483-2.786  C53.464,77.322,53.464,77.322,49.981,77.322z"/><text x="0" y="115" fill="#000000" font-size="5px" font-weight="bold" font-family="'Helvetica Neue', Helvetica, Arial-Unicode, Arial, Sans-serif">Created by NeueDeutsche</text><text x="0" y="120" fill="#000000" font-size="5px" font-weight="bold" font-family="'Helvetica Neue', Helvetica, Arial-Unicode, Arial, Sans-serif">from the Noun Project</text></svg>